<svg width="24" height="24" viewBox="0 0 24 24" fill="none" xmlns="http://www.w3.org/2000/svg">
<path d="M21 19.3803L16.1256 14.5059C16.9966 13.3065 17.5161 11.8472 17.5161 10.2581C17.5161 6.25467 14.2615 3 10.2581 3C6.25467 3 3 6.26231 3 10.2581C3 14.2538 6.25467 17.5161 10.2581 17.5161C11.8472 17.5161 13.3141 16.9966 14.5059 16.1256L19.3803 21L21 19.3803ZM10.2581 15.2241C7.52292 15.2241 5.29202 12.9932 5.29202 10.2581C5.29202 7.52292 7.52292 5.29202 10.2581 5.29202C12.9932 5.29202 15.2241 7.52292 15.2241 10.2581C15.2241 12.9932 12.9932 15.2241 10.2581 15.2241Z" fill="black"/>
</svg>
