<svg width="25" height="25" viewBox="0 0 25 25" fill="none" xmlns="http://www.w3.org/2000/svg">
<path fill-rule="evenodd" clip-rule="evenodd" d="M6.16333 7.80005C6.16333 4.61206 8.76388 2.02742 11.9497 2.02742C15.1355 2.02742 17.7361 4.61206 17.7361 7.80005C17.7361 10.988 15.1355 13.5727 11.9497 13.5727C8.76388 13.5727 6.16333 10.988 6.16333 7.80005ZM18.9497 7.80005C18.9497 3.94473 15.8288 0.800049 11.9497 0.800049C8.07066 0.800049 4.94971 3.94473 4.94971 7.80005C4.94971 11.6554 8.09196 14.8 11.9497 14.8C15.807 14.8 18.9497 11.6554 18.9497 7.80005Z" fill="black"/>
<path fill-rule="evenodd" clip-rule="evenodd" d="M6.16333 7.80005C6.16333 4.61206 8.76388 2.02742 11.9497 2.02742C15.1355 2.02742 17.7361 4.61206 17.7361 7.80005C17.7361 10.988 15.1355 13.5727 11.9497 13.5727C8.76388 13.5727 6.16333 10.988 6.16333 7.80005ZM18.9497 7.80005C18.9497 3.94473 15.8288 0.800049 11.9497 0.800049C8.07066 0.800049 4.94971 3.94473 4.94971 7.80005C4.94971 11.6554 8.09196 14.8 11.9497 14.8C15.807 14.8 18.9497 11.6554 18.9497 7.80005Z" stroke="black" stroke-width="1.6"/>
<path fill-rule="evenodd" clip-rule="evenodd" d="M12.4707 15.8933C17.6051 15.8933 21.9044 19.212 22.7599 23.8H23.9497C23.0732 18.5875 18.2312 14.8 12.4497 14.8C6.6687 14.8 1.84716 18.5875 0.949707 23.8H2.13947C3.05791 19.1928 7.33632 15.8933 12.4707 15.8933Z" fill="black"/>
<path fill-rule="evenodd" clip-rule="evenodd" d="M12.4707 15.8933C17.6051 15.8933 21.9044 19.212 22.7599 23.8H23.9497C23.0732 18.5875 18.2312 14.8 12.4497 14.8C6.6687 14.8 1.84716 18.5875 0.949707 23.8H2.13947C3.05791 19.1928 7.33632 15.8933 12.4707 15.8933Z" stroke="black" stroke-width="1.6"/>
</svg>
